<svg width="24" height="25" viewBox="0 0 24 25" fill="none" xmlns="http://www.w3.org/2000/svg">
<mask id="mask0_8611_11378" style="mask-type:alpha" maskUnits="userSpaceOnUse" x="0" y="0" width="24" height="25">
<rect y="0.75" width="24" height="24" fill="#D9D9D9"/>
</mask>
<g mask="url(#mask0_8611_11378)">
<path d="M6 15.75H7.5V13.75H9.5V15.75H11V9.75H9.5V12.25H7.5V9.75H6V15.75ZM13 15.75H17C17.2833 15.75 17.5208 15.6542 17.7125 15.4625C17.9042 15.2708 18 15.0333 18 14.75V10.75C18 10.4667 17.9042 10.2292 17.7125 10.0375C17.5208 9.84583 17.2833 9.75 17 9.75H13V15.75ZM14.5 14.25V11.25H16.5V14.25H14.5ZM4 20.75C3.45 20.75 2.97917 20.5542 2.5875 20.1625C2.19583 19.7708 2 19.3 2 18.75V6.75C2 6.2 2.19583 5.72917 2.5875 5.3375C2.97917 4.94583 3.45 4.75 4 4.75H20C20.55 4.75 21.0208 4.94583 21.4125 5.3375C21.8042 5.72917 22 6.2 22 6.75V18.75C22 19.3 21.8042 19.7708 21.4125 20.1625C21.0208 20.5542 20.55 20.75 20 20.75H4ZM4 18.75H20V6.75H4V18.75Z" fill="black"/>
</g>
</svg>
