<svg width="34" height="28" viewBox="0 0 34 28" fill="none" xmlns="http://www.w3.org/2000/svg">
<path d="M6.8 18.0625H8.6V15.6875H11V18.0625H12.8V10.9375H11V13.9062H8.6V10.9375H6.8V18.0625ZM15.2 18.0625H20C20.34 18.0625 20.625 17.9487 20.855 17.7211C21.085 17.4935 21.2 17.2115 21.2 16.875V12.125C21.2 11.7885 21.085 11.5065 20.855 11.2789C20.625 11.0513 20.34 10.9375 20 10.9375H15.2V18.0625ZM17 16.2812V12.7188H19.4V16.2812H17ZM4.4 24C3.74 24 3.175 23.7674 2.705 23.3023C2.235 22.8372 2 22.2781 2 21.625V7.375C2 6.72187 2.235 6.16276 2.705 5.69766C3.175 5.23255 3.74 5 4.4 5H23.6C24.26 5 24.825 5.23255 25.295 5.69766C25.765 6.16276 26 6.72187 26 7.375V21.625C26 22.2781 25.765 22.8372 25.295 23.3023C24.825 23.7674 24.26 24 23.6 24H4.4ZM4.4 21.625H23.6V7.375H4.4V21.625Z" fill="black"/>
</svg>
