<svg width="34" height="28" viewBox="0 0 34 28" fill="none" xmlns="http://www.w3.org/2000/svg">
<mask id="mask0_8668_21261" style="mask-type:alpha" maskUnits="userSpaceOnUse" x="0" y="0" width="28" height="28">
<rect width="28" height="28" fill="#D9D9D9"/>
</mask>
<g mask="url(#mask0_8668_21261)">
<path fill-rule="evenodd" clip-rule="evenodd" d="M6.8 18.0625H8.6V15.6875H11V18.0625H12.8V10.9375H11V13.9062H8.6V10.9375H6.8V18.0625ZM15.2 18.0625H20C20.34 18.0625 20.625 17.9487 20.855 17.7211C21.085 17.4935 21.2 17.2115 21.2 16.875V12.125C21.2 11.7885 21.085 11.5065 20.855 11.2789C20.625 11.0513 20.34 10.9375 20 10.9375H15.2V18.0625ZM17 16.2812V12.7188H19.4V16.2812H17ZM4.4 24C3.74 24 3.175 23.7674 2.705 23.3023C2.235 22.8372 2 22.2781 2 21.625V7.375C2 6.72187 2.235 6.16276 2.705 5.69766C3.175 5.23255 3.74 5 4.4 5H23.6C24.26 5 24.825 5.23255 25.295 5.69766C25.765 6.16276 26 6.72187 26 7.375V17C25.3083 17 24.6583 17.1313 24.05 17.3938C23.4417 17.6562 22.9125 18.0125 22.4625 18.4625C22.0125 18.9125 21.6562 19.4417 21.3937 20.05C21.1313 20.6583 21 21.3083 21 22C21 22.6917 21.1313 23.3417 21.3937 23.95C21.401 23.9667 21.4083 23.9834 21.4156 24H4.4Z" fill="#1C1B1F"/>
</g>
<mask id="mask1_8668_21261" style="mask-type:alpha" maskUnits="userSpaceOnUse" x="20" y="16" width="12" height="12">
<rect x="20" y="16" width="12" height="12" fill="#D9D9D9"/>
</mask>
<g mask="url(#mask1_8668_21261)">
<path fill-rule="evenodd" clip-rule="evenodd" d="M31.0003 19.4171L26.1188 24.2986L23.176 21.3559L24.1454 20.3865L26.1188 22.3599L30.0309 18.4478L31.0003 19.4171Z" fill="black"/>
</g>
</svg>
